<?xml version="1.0" encoding="UTF-8" standalone="no"?>
<!DOCTYPE svg PUBLIC "-//W3C//DTD SVG 1.1//EN" "http://www.w3.org/Graphics/SVG/1.1/DTD/svg11.dtd">
<svg xmlns="http://www.w3.org/2000/svg" version="1.1" viewBox="0.00 0.00 130.00 129.00">
<path fill="#1a84c6" d="
  M 24.62 21.09
  C 31.52 12.01 45.13 6.71 56.01 4.92
  Q 59.20 4.40 66.69 4.69
  Q 72.96 4.93 77.26 5.87
  Q 93.63 9.44 105.47 21.73
  Q 105.85 22.12 105.30 22.12
  L 24.00 22.21
  Q 23.17 22.21 23.94 21.73
  Q 24.30 21.51 24.62 21.09
  Z"
/>
<path fill="#1a84c6" d="
  M 85.72 42.95
  C 88.34 42.94 89.96 41.40 91.66 39.71
  Q 99.32 32.08 106.91 24.36
  A 0.75 0.74 46.5 0 1 108.00 24.39
  Q 113.68 30.82 116.92 38.09
  C 118.63 41.92 119.59 46.08 120.53 50.22
  Q 123.73 64.38 119.49 78.70
  A 2.32 2.31 5.4 0 1 117.49 80.35
  Q 113.28 80.76 108.91 80.72
  Q 77.68 80.45 46.09 80.12
  Q 41.01 80.07 37.56 83.55
  Q 30.33 90.84 22.22 99.02
  Q 21.54 99.70 20.94 98.96
  Q 11.05 86.67 8.43 72.73
  Q 7.34 66.97 8.01 53.97
  C 8.12 51.81 8.97 49.96 9.07 47.80
  C 9.26 43.73 12.05 42.94 15.37 42.95
  Q 50.28 43.00 85.72 42.95
  Z
  M 88.17 71.95
  A 0.71 0.71 0.0 0 0 88.67 71.74
  L 107.52 52.87
  A 0.71 0.71 0.0 0 0 107.02 51.66
  L 40.80 51.55
  A 0.71 0.71 0.0 0 0 40.30 51.76
  L 21.23 70.83
  A 0.71 0.71 0.0 0 0 21.74 72.04
  L 88.17 71.95
  Z"
/>
<path fill="#1a84c6" d="
  M 41.20 114.27
  Q 32.19 110.39 24.03 102.22
  Q 23.56 101.75 24.25 101.75
  L 104.03 101.67
  Q 105.59 101.66 104.48 102.77
  Q 92.24 114.95 75.76 117.96
  Q 57.51 121.31 41.20 114.27
  Z"
/>
</svg>
