<?xml version="1.0" encoding="UTF-8" standalone="no"?>
<!DOCTYPE svg PUBLIC "-//W3C//DTD SVG 1.1//EN" "http://www.w3.org/Graphics/SVG/1.1/DTD/svg11.dtd">
<svg xmlns="http://www.w3.org/2000/svg" version="1.1" viewBox="0.00 0.00 357.00 117.00">
<path fill="#1a84c6" d="
  M 18.55 17.12
  Q 21.82 12.97 25.98 10.27
  Q 37.80 2.61 49.91 1.06
  Q 54.60 0.46 61.38 0.69
  C 76.02 1.18 89.28 7.15 99.47 17.73
  Q 99.85 18.12 99.31 18.12
  L 18.01 18.21
  Q 17.27 18.21 17.87 17.78
  Q 18.26 17.50 18.55 17.12
  Z"
/>
<path fill="#333333" d="
  M 148.47 48.86
  C 153.95 49.00 161.17 48.18 165.95 50.82
  C 170.28 53.22 170.35 61.14 166.89 64.23
  C 162.64 68.02 153.86 66.89 148.54 66.87
  Q 147.91 66.86 147.91 67.49
  Q 147.78 77.99 147.80 88.54
  C 147.81 93.53 146.64 99.04 140.88 100.04
  Q 133.61 101.30 130.76 96.04
  C 129.46 93.64 129.38 90.09 129.37 87.27
  Q 129.30 58.01 129.41 28.66
  C 129.44 21.97 129.97 15.12 138.67 15.02
  Q 150.02 14.89 161.17 14.98
  C 167.89 15.03 176.65 15.74 176.02 24.85
  C 175.58 31.16 169.85 32.88 164.48 32.92
  Q 156.05 32.99 148.49 32.94
  Q 147.88 32.94 147.88 33.55
  L 147.84 48.21
  Q 147.83 48.84 148.47 48.86
  Z"
/>
<path fill="#333333" d="
  M 199.78 99.27
  C 194.85 101.42 188.63 99.72 187.16 94.24
  Q 186.32 91.11 186.31 87.00
  Q 186.25 59.55 186.30 27.75
  C 186.31 21.52 187.72 15.94 194.84 15.08
  C 198.62 14.63 202.53 16.83 203.70 20.63
  Q 204.63 23.67 204.67 26.83
  Q 204.85 39.99 204.75 54.23
  Q 204.72 58.22 205.07 62.25
  C 205.37 65.80 204.83 69.32 204.82 72.85
  Q 204.79 79.62 204.78 86.91
  C 204.77 91.30 204.27 97.31 199.78 99.27
  Z"
/>
<path fill="#1a84c6" d="
  M 79.89 38.98
  C 82.37 38.98 84.13 37.20 85.72 35.63
  Q 93.31 28.10 100.91 20.37
  A 0.74 0.74 0.0 0 1 101.99 20.39
  C 107.13 26.18 111.13 32.86 113.05 40.18
  Q 113.85 43.24 114.56 46.25
  Q 117.68 59.59 113.59 74.47
  C 113.17 75.99 111.63 76.49 110.25 76.53
  Q 104.70 76.70 99.46 76.67
  Q 69.84 76.48 40.87 76.08
  Q 35.16 76.00 31.72 79.43
  Q 24.76 86.38 16.35 94.93
  Q 15.56 95.73 14.85 94.85
  Q 5.14 82.82 2.45 68.86
  Q 1.41 63.45 2.01 50.02
  C 2.10 47.85 2.97 45.98 3.07 43.80
  C 3.26 39.77 5.97 38.96 9.27 38.96
  Q 44.34 38.97 79.89 38.98
  Z
  M 82.17 67.95
  A 0.71 0.71 0.0 0 0 82.67 67.74
  L 101.52 48.87
  A 0.71 0.71 0.0 0 0 101.02 47.66
  L 34.80 47.55
  A 0.71 0.71 0.0 0 0 34.30 47.76
  L 15.24 66.83
  A 0.71 0.71 0.0 0 0 15.75 68.04
  L 82.17 67.95
  Z"
/>
<path fill="#333333" d="
  M 223.95 93.50
  Q 218.54 87.47 218.30 79.74
  Q 218.04 70.99 218.24 61.23
  C 218.44 51.17 223.73 43.23 233.68 40.37
  Q 246.92 36.56 258.75 42.48
  C 265.01 45.61 268.33 53.35 268.57 60.09
  Q 268.91 69.19 268.66 78.51
  C 268.48 85.31 266.01 91.75 260.58 96.00
  Q 257.68 98.27 253.03 99.51
  Q 244.67 101.75 235.56 99.76
  Q 228.10 98.12 223.95 93.50
  Z
  M 250.76 59.30
  A 6.26 6.26 0.0 0 0 244.50 53.04
  L 243.06 53.04
  A 6.26 6.26 0.0 0 0 236.80 59.30
  L 236.80 81.44
  A 6.26 6.26 0.0 0 0 243.06 87.70
  L 244.50 87.70
  A 6.26 6.26 0.0 0 0 250.76 81.44
  L 250.76 59.30
  Z"
/>
<path fill="#333333" d="
  M 316.06 68.88
  A 0.80 0.79 -80.2 0 0 315.26 69.45
  Q 312.14 80.16 308.93 90.53
  C 307.95 93.68 305.87 99.32 302.05 100.03
  C 294.53 101.43 292.31 96.64 290.09 90.85
  Q 283.36 73.27 276.61 55.27
  C 274.69 50.17 273.52 42.01 280.41 39.94
  C 285.72 38.36 289.98 41.54 291.55 46.30
  Q 295.69 58.83 299.67 71.41
  Q 299.81 71.84 300.21 72.02
  A 0.73 0.72 -68.8 0 0 301.20 71.58
  Q 304.17 62.48 306.89 54.30
  Q 308.72 48.81 313.24 47.08
  C 318.92 44.91 322.94 49.26 324.83 54.12
  Q 328.14 62.68 331.54 71.85
  Q 331.71 72.30 332.17 72.22
  A 1.04 1.03 -86.8 0 0 332.99 71.48
  Q 336.10 60.64 339.49 48.36
  Q 340.47 44.84 342.21 42.67
  C 345.02 39.18 350.83 38.25 354.24 41.51
  C 357.72 44.82 356.66 51.14 355.10 55.33
  Q 348.47 73.22 341.72 91.01
  C 340.50 94.23 338.77 99.01 334.99 99.91
  Q 329.29 101.28 326.35 97.50
  Q 324.10 94.60 322.88 90.60
  Q 319.87 80.72 316.75 69.43
  Q 316.61 68.90 316.06 68.88
  Z"
/>
<path fill="#1a84c6" d="
  M 35.39 110.37
  Q 26.19 106.45 18.02 98.22
  Q 17.55 97.75 18.22 97.74
  L 98.03 97.67
  Q 99.56 97.67 98.48 98.76
  Q 88.47 108.90 74.20 113.02
  C 71.26 113.87 68.44 113.97 65.47 114.56
  Q 63.87 114.87 62.11 114.96
  Q 47.79 115.67 35.39 110.37
  Z"
/>
</svg>
